<svg xmlns="http://www.w3.org/2000/svg" viewBox="0 0 48 48">
  <path fill="#EA4335" d="M24 9.5c3.14 0 5.98 1.08 8.21 2.85l6.12-6.12C34.58 2.49 29.63 0 24 0 14.62 0 6.51 5.38 2.56 13.22l7.11 5.52C11.3 13.17 17.2 9.5 24 9.5z"/>
  <path fill="#4285F4" d="M46.5 24c0-1.64-.15-3.21-.43-4.74H24v9.01h12.7c-.55 2.97-2.21 5.48-4.69 7.18l7.23 5.61C43.44 37.36 46.5 31.19 46.5 24z"/>
  <path fill="#FBBC05" d="M9.67 28.74A14.5 14.5 0 0 1 9.5 24c0-1.64.29-3.22.8-4.74l-7.11-5.52A23.93 23.93 0 0 0 0 24c0 3.89.93 7.57 2.56 10.78l7.11-5.52z"/>
  <path fill="#34A853" d="M24 48c6.48 0 11.92-2.14 15.9-5.8l-7.23-5.61c-2 1.34-4.56 2.13-8.67 2.13-6.8 0-12.7-3.67-14.33-9.24l-7.11 5.52C6.51 42.62 14.62 48 24 48z"/>
</svg>
